<svg width="130" height="56" viewBox="0 0 130 56" fill="none" xmlns="http://www.w3.org/2000/svg">
    <path d="M73.6194 26.5272L69.311 19.1913H66.9682V26.5272H63.8984V8.18746H70.3612C71.7973 8.18746 73.0091 8.43375 73.9964 8.92633C75.0017 9.41891 75.7468 10.0786 76.2315 10.9054C76.7341 11.7323 76.9854 12.6559 76.9854 13.6762C76.9854 14.8725 76.6264 15.9632 75.9083 16.9483C75.2082 17.9159 74.1221 18.5756 72.65 18.9274L77.2816 26.5272H73.6194ZM66.9682 16.79H70.3612C71.5101 16.79 72.3718 16.5085 72.9462 15.9456C73.5387 15.3826 73.8349 14.6262 73.8349 13.6762C73.8349 12.7262 73.5476 11.9874 72.9732 11.4596C72.3987 10.9142 71.528 10.6416 70.3612 10.6416H66.9682V16.79Z" fill="#060A2A"/>
    <path d="M94.5111 18.901C94.5111 19.4464 94.4752 19.939 94.4034 20.3788H83.0667C83.1565 21.5399 83.5963 22.4722 84.3862 23.1759C85.1761 23.8796 86.1455 24.2314 87.2944 24.2314C88.946 24.2314 90.1129 23.5541 90.7951 22.1996H94.1072C93.6584 23.5366 92.8416 24.6361 91.6568 25.4981C90.4899 26.3425 89.0358 26.7647 87.2944 26.7647C85.8762 26.7647 84.6016 26.4568 83.4707 25.8411C82.3576 25.2078 81.478 24.3282 80.8317 23.2023C80.2034 22.0588 79.8892 20.7394 79.8892 19.2441C79.8892 17.7488 80.1944 16.4382 80.8048 15.3123C81.4331 14.1688 82.3038 13.2892 83.4168 12.6734C84.5478 12.0577 85.8403 11.7499 87.2944 11.7499C88.6947 11.7499 89.9424 12.0489 91.0374 12.6471C92.1325 13.2452 92.9852 14.0896 93.5956 15.1803C94.206 16.2534 94.5111 17.4937 94.5111 18.901ZM91.3067 17.9511C91.2888 16.8428 90.8848 15.9544 90.095 15.2859C89.3051 14.6174 88.3267 14.2831 87.1598 14.2831C86.1006 14.2831 85.1941 14.6174 84.4401 15.2859C83.6861 15.9368 83.2373 16.8252 83.0937 17.9511H91.3067Z" fill="#060A2A"/>
    <path d="M96.5089 19.1913C96.5089 17.7312 96.814 16.4382 97.4244 15.3123C98.0527 14.1864 98.8965 13.3156 99.9556 12.6998C101.033 12.0665 102.218 11.7499 103.51 11.7499C104.677 11.7499 105.691 11.9786 106.553 12.436C107.433 12.8758 108.133 13.4299 108.653 14.0984V11.9874H111.75V26.5272H108.653V24.3634C108.133 25.0495 107.424 25.6212 106.526 26.0786C105.628 26.536 104.605 26.7647 103.456 26.7647C102.182 26.7647 101.015 26.448 99.9556 25.8147C98.8965 25.1638 98.0527 24.2666 97.4244 23.1231C96.814 21.9621 96.5089 20.6515 96.5089 19.1913ZM108.653 19.2441C108.653 18.2413 108.438 17.3705 108.007 16.6317C107.594 15.8928 107.047 15.3299 106.365 14.9428C105.682 14.5558 104.946 14.3623 104.156 14.3623C103.367 14.3623 102.63 14.5558 101.948 14.9428C101.266 15.3123 100.71 15.8664 100.279 16.6053C99.8659 17.3266 99.6594 18.1886 99.6594 19.1913C99.6594 20.1941 99.8659 21.0737 100.279 21.8301C100.71 22.5866 101.266 23.1671 101.948 23.5717C102.648 23.9588 103.384 24.1523 104.156 24.1523C104.946 24.1523 105.682 23.9588 106.365 23.5717C107.047 23.1847 107.594 22.6218 108.007 21.8829C108.438 21.1264 108.653 20.2468 108.653 19.2441Z" fill="#060A2A"/>
    <path d="M114.759 19.1913C114.759 17.7312 115.064 16.4382 115.674 15.3123C116.303 14.1864 117.146 13.3156 118.206 12.6998C119.283 12.0665 120.477 11.7499 121.787 11.7499C122.756 11.7499 123.708 11.961 124.641 12.3832C125.593 12.7878 126.347 13.3331 126.903 14.0192V7H130V26.5272H126.903V24.337C126.401 25.0407 125.701 25.6212 124.803 26.0786C123.923 26.536 122.909 26.7647 121.76 26.7647C120.468 26.7647 119.283 26.448 118.206 25.8147C117.146 25.1638 116.303 24.2666 115.674 23.1231C115.064 21.9621 114.759 20.6515 114.759 19.1913ZM126.903 19.2441C126.903 18.2413 126.688 17.3705 126.257 16.6317C125.844 15.8928 125.297 15.3299 124.615 14.9428C123.932 14.5558 123.196 14.3623 122.406 14.3623C121.617 14.3623 120.881 14.5558 120.198 14.9428C119.516 15.3123 118.96 15.8664 118.529 16.6053C118.116 17.3266 117.909 18.1886 117.909 19.1913C117.909 20.1941 118.116 21.0737 118.529 21.8301C118.96 22.5866 119.516 23.1671 120.198 23.5717C120.898 23.9588 121.635 24.1523 122.406 24.1523C123.196 24.1523 123.932 23.9588 124.615 23.5717C125.297 23.1847 125.844 22.6218 126.257 21.8829C126.688 21.1264 126.903 20.2468 126.903 19.2441Z" fill="#060A2A"/>
    <path d="M65.1104 37.2347C65.359 36.8034 65.723 36.4513 66.2025 36.1784C66.6819 35.9056 67.228 35.7692 67.8406 35.7692C68.4976 35.7692 69.0881 35.9232 69.6119 36.2313C70.1358 36.5393 70.5486 36.975 70.8505 37.5383C71.1524 38.0929 71.3033 38.7398 71.3033 39.4792C71.3033 40.2097 71.1524 40.8611 70.8505 41.4332C70.5486 42.0053 70.1313 42.4498 69.5986 42.7667C69.0747 43.0835 68.4887 43.242 67.8406 43.242C67.2102 43.242 66.6553 43.1056 66.1758 42.8327C65.7053 42.5598 65.3501 42.2122 65.1104 41.7897V43.1232H63.8984V33.353H65.1104V37.2347ZM70.0647 39.4792C70.0647 38.9334 69.9537 38.4581 69.7318 38.0533C69.5098 37.6484 69.2079 37.3403 68.8261 37.129C68.4532 36.9178 68.0404 36.8122 67.5876 36.8122C67.1436 36.8122 66.7308 36.9222 66.349 37.1423C65.9761 37.3535 65.6742 37.666 65.4433 38.0797C65.2214 38.4845 65.1104 38.9554 65.1104 39.4924C65.1104 40.0381 65.2214 40.5178 65.4433 40.9315C65.6742 41.3364 65.9761 41.6488 66.349 41.8689C66.7308 42.0801 67.1436 42.1858 67.5876 42.1858C68.0404 42.1858 68.4532 42.0801 68.8261 41.8689C69.2079 41.6488 69.5098 41.3364 69.7318 40.9315C69.9537 40.5178 70.0647 40.0337 70.0647 39.4792Z" fill="#B6BCD7"/>
    <path d="M79.1847 35.888L74.7897 46.5295H73.5378L74.9762 43.0439L72.0329 35.888H73.378L75.6687 41.7501L77.9328 35.888H79.1847Z" fill="#B6BCD7"/>
    <path d="M85.1656 37.2347C85.4142 36.8034 85.7782 36.4513 86.2577 36.1784C86.7371 35.9056 87.2832 35.7692 87.8958 35.7692C88.5528 35.7692 89.1433 35.9232 89.6671 36.2313C90.191 36.5393 90.6038 36.975 90.9057 37.5383C91.2076 38.0929 91.3585 38.7398 91.3585 39.4792C91.3585 40.2097 91.2076 40.8611 90.9057 41.4332C90.6038 42.0053 90.1865 42.4498 89.6538 42.7667C89.1299 43.0835 88.5439 43.242 87.8958 43.242C87.2654 43.242 86.7105 43.1056 86.231 42.8327C85.7605 42.5598 85.4053 42.2122 85.1656 41.7897V43.1232H83.9536V33.353H85.1656V37.2347ZM90.1199 39.4792C90.1199 38.9334 90.0089 38.4581 89.787 38.0533C89.565 37.6484 89.2631 37.3403 88.8813 37.129C88.5084 36.9178 88.0956 36.8122 87.6428 36.8122C87.1988 36.8122 86.786 36.9222 86.4042 37.1423C86.0313 37.3535 85.7294 37.666 85.4985 38.0797C85.2766 38.4845 85.1656 38.9554 85.1656 39.4924C85.1656 40.0381 85.2766 40.5178 85.4985 40.9315C85.7294 41.3364 86.0313 41.6488 86.4042 41.8689C86.786 42.0801 87.1988 42.1858 87.6428 42.1858C88.0956 42.1858 88.5084 42.0801 88.8813 41.8689C89.2631 41.6488 89.565 41.3364 89.787 40.9315C90.0089 40.5178 90.1199 40.0337 90.1199 39.4792Z" fill="#B6BCD7"/>
    <path d="M99.2399 35.888L94.8449 46.5295H93.593L95.0314 43.0439L92.0881 35.888H93.4332L95.7239 41.7501L97.988 35.888H99.2399Z" fill="#B6BCD7"/>
    <path d="M109.235 35.756C109.803 35.756 110.309 35.8748 110.753 36.1124C111.197 36.3413 111.548 36.689 111.805 37.1555C112.063 37.622 112.191 38.1897 112.191 38.8586V43.1232H110.993V39.0303C110.993 38.3085 110.811 37.7584 110.447 37.3799C110.092 36.9926 109.608 36.799 108.995 36.799C108.365 36.799 107.863 37.0014 107.49 37.4063C107.117 37.8024 106.931 38.3789 106.931 39.1359V43.1232H105.732V39.0303C105.732 38.3085 105.55 37.7584 105.186 37.3799C104.831 36.9926 104.347 36.799 103.734 36.799C103.104 36.799 102.602 37.0014 102.23 37.4063C101.857 37.8024 101.67 38.3789 101.67 39.1359V43.1232H100.458V35.888H101.67V36.931C101.91 36.5525 102.23 36.2621 102.629 36.0596C103.037 35.8572 103.486 35.756 103.974 35.756C104.587 35.756 105.128 35.8924 105.599 36.1652C106.07 36.4381 106.42 36.8386 106.651 37.3667C106.855 36.8562 107.193 36.4601 107.663 36.1784C108.134 35.8968 108.658 35.756 109.235 35.756Z" fill="#B6BCD7"/>
    <path d="M116.763 43.242C116.204 43.242 115.702 43.1496 115.258 42.9647C114.814 42.7711 114.464 42.507 114.206 42.1725C113.949 41.8293 113.807 41.4376 113.78 40.9975H115.032C115.067 41.3584 115.236 41.6532 115.538 41.8821C115.849 42.1109 116.253 42.2254 116.75 42.2254C117.212 42.2254 117.576 42.1241 117.842 41.9217C118.108 41.7192 118.242 41.464 118.242 41.1559C118.242 40.8391 118.099 40.6058 117.815 40.4562C117.531 40.2977 117.092 40.1437 116.497 39.9941C115.955 39.8532 115.511 39.7124 115.165 39.5716C114.828 39.4219 114.535 39.2063 114.286 38.9246C114.046 38.6342 113.926 38.2557 113.926 37.7892C113.926 37.4195 114.037 37.0806 114.259 36.7726C114.481 36.4645 114.797 36.2225 115.205 36.0464C115.613 35.8616 116.08 35.7692 116.603 35.7692C117.411 35.7692 118.064 35.9716 118.561 36.3765C119.058 36.7814 119.325 37.3359 119.36 38.04H118.148C118.122 37.6616 117.966 37.3579 117.682 37.129C117.407 36.9002 117.034 36.7858 116.563 36.7858C116.128 36.7858 115.782 36.8782 115.525 37.063C115.267 37.2479 115.138 37.4899 115.138 37.7892C115.138 38.0268 115.214 38.2249 115.365 38.3833C115.525 38.533 115.72 38.6562 115.951 38.753C116.191 38.841 116.519 38.9422 116.936 39.0567C117.46 39.1975 117.886 39.3383 118.215 39.4792C118.543 39.6112 118.823 39.8136 119.054 40.0865C119.294 40.3594 119.418 40.7158 119.427 41.1559C119.427 41.552 119.316 41.9085 119.094 42.2254C118.872 42.5422 118.557 42.7931 118.148 42.9779C117.749 43.154 117.287 43.242 116.763 43.242Z" fill="#B6BCD7"/>
    <path d="M127.797 39.2283C127.797 39.4572 127.783 39.6992 127.757 39.9545H121.923C121.968 40.6674 122.212 41.2263 122.656 41.6312C123.109 42.0273 123.655 42.2254 124.294 42.2254C124.818 42.2254 125.253 42.1065 125.599 41.8689C125.954 41.6224 126.203 41.2968 126.345 40.8919H127.65C127.455 41.5872 127.064 42.1549 126.478 42.595C125.892 43.0263 125.164 43.242 124.294 43.242C123.602 43.242 122.98 43.0879 122.43 42.7799C121.888 42.4718 121.462 42.0361 121.151 41.4728C120.84 40.9007 120.685 40.2405 120.685 39.4924C120.685 38.7442 120.836 38.0885 121.138 37.5251C121.44 36.9618 121.861 36.5305 122.403 36.2313C122.953 35.9232 123.584 35.7692 124.294 35.7692C124.987 35.7692 125.599 35.9188 126.132 36.2181C126.665 36.5173 127.073 36.931 127.357 37.4591C127.65 37.9784 127.797 38.5682 127.797 39.2283ZM126.545 38.9775C126.545 38.5198 126.443 38.1281 126.239 37.8024C126.034 37.4679 125.755 37.2171 125.399 37.0498C125.053 36.8738 124.667 36.7858 124.241 36.7858C123.628 36.7858 123.104 36.9794 122.669 37.3667C122.243 37.754 121.999 38.2909 121.937 38.9775H126.545Z" fill="#B6BCD7"/>
    <path fill-rule="evenodd" clip-rule="evenodd" d="M3.05176e-05 24.1569C3.05176e-05 37.4983 10.8514 48.3137 24.2373 48.3137C24.6065 48.3137 24.9738 48.3055 25.339 48.2892V54.902H27.5424V48.091C39.3648 46.4844 48.4746 36.381 48.4746 24.1569C48.4746 18.9742 46.8371 14.1727 44.0495 10.2383L45.9604 4.31015L40.0268 5.82874C35.7853 2.19566 30.2686 0 24.2373 0C10.8514 0 3.05176e-05 10.8154 3.05176e-05 24.1569ZM24.2373 48.3137L24.2373 56H22.0339V48.3137H24.2373Z" fill="#5A81FA"/>
    <path fill-rule="evenodd" clip-rule="evenodd" d="M31.9492 26.3531C26.4732 26.3531 22.034 21.9286 22.034 16.4707C22.034 11.0129 26.4732 6.58838 31.9492 6.58838C37.4253 6.58838 41.8645 11.0129 41.8645 16.4707C41.8645 21.9286 37.4253 26.3531 31.9492 26.3531ZM34.7035 17.5688C32.5739 17.5688 30.8476 15.8481 30.8476 13.7256C30.8476 11.6031 32.5739 9.8825 34.7035 9.8825C36.8331 9.8825 38.5594 11.6031 38.5594 13.7256C38.5594 15.8481 36.8331 17.5688 34.7035 17.5688Z" fill="white"/>
</svg>
