<svg width="130" height="56" viewBox="0 0 130 56" fill="none" xmlns="http://www.w3.org/2000/svg">
<path d="M73.6194 26.5272L69.311 19.1913H66.9682V26.5272H63.8984V8.18746H70.3612C71.7973 8.18746 73.0091 8.43375 73.9964 8.92633C75.0017 9.41891 75.7468 10.0786 76.2315 10.9054C76.7341 11.7323 76.9854 12.6559 76.9854 13.6762C76.9854 14.8725 76.6264 15.9632 75.9083 16.9483C75.2082 17.9159 74.1221 18.5756 72.65 18.9274L77.2816 26.5272H73.6194ZM66.9682 16.79H70.3612C71.5101 16.79 72.3718 16.5085 72.9462 15.9456C73.5387 15.3826 73.8349 14.6262 73.8349 13.6762C73.8349 12.7262 73.5476 11.9874 72.9732 11.4596C72.3987 10.9142 71.528 10.6416 70.3612 10.6416H66.9682V16.79Z" fill="#060A2A"/>
<path d="M94.5111 18.901C94.5111 19.4464 94.4752 19.939 94.4034 20.3788H83.0667C83.1565 21.5399 83.5963 22.4722 84.3862 23.1759C85.1761 23.8796 86.1455 24.2314 87.2944 24.2314C88.946 24.2314 90.1129 23.5541 90.7951 22.1996H94.1072C93.6584 23.5366 92.8416 24.6361 91.6568 25.4981C90.4899 26.3425 89.0358 26.7647 87.2944 26.7647C85.8762 26.7647 84.6016 26.4568 83.4707 25.8411C82.3576 25.2078 81.478 24.3282 80.8317 23.2023C80.2034 22.0588 79.8892 20.7394 79.8892 19.2441C79.8892 17.7488 80.1944 16.4382 80.8048 15.3123C81.4331 14.1688 82.3038 13.2892 83.4168 12.6734C84.5478 12.0577 85.8403 11.7499 87.2944 11.7499C88.6947 11.7499 89.9424 12.0489 91.0374 12.6471C92.1325 13.2452 92.9852 14.0896 93.5956 15.1803C94.206 16.2534 94.5111 17.4937 94.5111 18.901ZM91.3067 17.9511C91.2888 16.8428 90.8848 15.9544 90.095 15.2859C89.3051 14.6174 88.3267 14.2831 87.1598 14.2831C86.1006 14.2831 85.1941 14.6174 84.4401 15.2859C83.6861 15.9368 83.2373 16.8252 83.0937 17.9511H91.3067Z" fill="#060A2A"/>
<path d="M96.5089 19.1913C96.5089 17.7312 96.814 16.4382 97.4244 15.3123C98.0527 14.1864 98.8965 13.3156 99.9556 12.6998C101.033 12.0665 102.218 11.7499 103.51 11.7499C104.677 11.7499 105.691 11.9786 106.553 12.436C107.433 12.8758 108.133 13.4299 108.653 14.0984V11.9874H111.75V26.5272H108.653V24.3634C108.133 25.0495 107.424 25.6212 106.526 26.0786C105.628 26.536 104.605 26.7647 103.456 26.7647C102.182 26.7647 101.015 26.448 99.9556 25.8147C98.8965 25.1638 98.0527 24.2666 97.4244 23.1231C96.814 21.9621 96.5089 20.6515 96.5089 19.1913ZM108.653 19.2441C108.653 18.2413 108.438 17.3705 108.007 16.6317C107.594 15.8928 107.047 15.3299 106.365 14.9428C105.682 14.5558 104.946 14.3623 104.156 14.3623C103.367 14.3623 102.63 14.5558 101.948 14.9428C101.266 15.3123 100.71 15.8664 100.279 16.6053C99.8659 17.3266 99.6594 18.1886 99.6594 19.1913C99.6594 20.1941 99.8659 21.0737 100.279 21.8301C100.71 22.5866 101.266 23.1671 101.948 23.5717C102.648 23.9588 103.384 24.1523 104.156 24.1523C104.946 24.1523 105.682 23.9588 106.365 23.5717C107.047 23.1847 107.594 22.6218 108.007 21.8829C108.438 21.1264 108.653 20.2468 108.653 19.2441Z" fill="#060A2A"/>
<path d="M114.759 19.1913C114.759 17.7312 115.064 16.4382 115.674 15.3123C116.303 14.1864 117.146 13.3156 118.206 12.6998C119.283 12.0665 120.477 11.7499 121.787 11.7499C122.756 11.7499 123.708 11.961 124.641 12.3832C125.593 12.7878 126.347 13.3331 126.903 14.0192V7H130V26.5272H126.903V24.337C126.401 25.0407 125.701 25.6212 124.803 26.0786C123.923 26.536 122.909 26.7647 121.76 26.7647C120.468 26.7647 119.283 26.448 118.206 25.8147C117.146 25.1638 116.303 24.2666 115.674 23.1231C115.064 21.9621 114.759 20.6515 114.759 19.1913ZM126.903 19.2441C126.903 18.2413 126.688 17.3705 126.257 16.6317C125.844 15.8928 125.297 15.3299 124.615 14.9428C123.932 14.5558 123.196 14.3623 122.406 14.3623C121.617 14.3623 120.881 14.5558 120.198 14.9428C119.516 15.3123 118.96 15.8664 118.529 16.6053C118.116 17.3266 117.909 18.1886 117.909 19.1913C117.909 20.1941 118.116 21.0737 118.529 21.8301C118.96 22.5866 119.516 23.1671 120.198 23.5717C120.898 23.9588 121.635 24.1523 122.406 24.1523C123.196 24.1523 123.932 23.9588 124.615 23.5717C125.297 23.1847 125.844 22.6218 126.257 21.8829C126.688 21.1264 126.903 20.2468 126.903 19.2441Z" fill="#060A2A"/>
<path d="M65.1104 37.2352C65.359 36.8039 65.723 36.4518 66.2025 36.1789C66.6819 35.9061 67.228 35.7696 67.8406 35.7696C68.4976 35.7696 69.0881 35.9237 69.6119 36.2317C70.1358 36.5398 70.5486 36.9755 70.8505 37.5388C71.1524 38.0933 71.3033 38.7403 71.3033 39.4797C71.3033 40.2102 71.1524 40.8616 70.8505 41.4337C70.5486 42.0058 70.1313 42.4503 69.5986 42.7672C69.0747 43.084 68.4887 43.2425 67.8406 43.2425C67.2102 43.2425 66.6553 43.106 66.1758 42.8332C65.7053 42.5603 65.3501 42.2126 65.1104 41.7902V43.1236H63.8984V33.3535H65.1104V37.2352ZM70.0647 39.4797C70.0647 38.9339 69.9537 38.4586 69.7318 38.0537C69.5098 37.6489 69.2079 37.3408 68.8261 37.1295C68.4532 36.9183 68.0404 36.8127 67.5876 36.8127C67.1436 36.8127 66.7308 36.9227 66.349 37.1427C65.9761 37.354 65.6742 37.6665 65.4433 38.0801C65.2214 38.485 65.1104 38.9559 65.1104 39.4929C65.1104 40.0386 65.2214 40.5183 65.4433 40.932C65.6742 41.3369 65.9761 41.6493 66.349 41.8694C66.7308 42.0806 67.1436 42.1862 67.5876 42.1862C68.0404 42.1862 68.4532 42.0806 68.8261 41.8694C69.2079 41.6493 69.5098 41.3369 69.7318 40.932C69.9537 40.5183 70.0647 40.0342 70.0647 39.4797Z" fill="#B6BCD7"/>
<path d="M79.1847 35.8885L74.7897 46.53H73.5378L74.9762 43.0444L72.0329 35.8885H73.378L75.6687 41.7505L77.9328 35.8885H79.1847Z" fill="#B6BCD7"/>
<path d="M85.1656 37.2352C85.4142 36.8039 85.7782 36.4518 86.2577 36.1789C86.7371 35.9061 87.2832 35.7696 87.8958 35.7696C88.5528 35.7696 89.1433 35.9237 89.6671 36.2317C90.191 36.5398 90.6038 36.9755 90.9057 37.5388C91.2076 38.0933 91.3585 38.7403 91.3585 39.4797C91.3585 40.2102 91.2076 40.8616 90.9057 41.4337C90.6038 42.0058 90.1865 42.4503 89.6538 42.7672C89.1299 43.084 88.5439 43.2425 87.8958 43.2425C87.2654 43.2425 86.7105 43.106 86.231 42.8332C85.7605 42.5603 85.4053 42.2126 85.1656 41.7902V43.1236H83.9536V33.3535H85.1656V37.2352ZM90.1199 39.4797C90.1199 38.9339 90.0089 38.4586 89.787 38.0537C89.565 37.6489 89.2631 37.3408 88.8813 37.1295C88.5084 36.9183 88.0956 36.8127 87.6428 36.8127C87.1988 36.8127 86.786 36.9227 86.4042 37.1427C86.0313 37.354 85.7294 37.6665 85.4985 38.0801C85.2766 38.485 85.1656 38.9559 85.1656 39.4929C85.1656 40.0386 85.2766 40.5183 85.4985 40.932C85.7294 41.3369 86.0313 41.6493 86.4042 41.8694C86.786 42.0806 87.1988 42.1862 87.6428 42.1862C88.0956 42.1862 88.5084 42.0806 88.8813 41.8694C89.2631 41.6493 89.565 41.3369 89.787 40.932C90.0089 40.5183 90.1199 40.0342 90.1199 39.4797Z" fill="#B6BCD7"/>
<path d="M99.2399 35.8885L94.8449 46.53H93.593L95.0314 43.0444L92.0881 35.8885H93.4332L95.7239 41.7505L97.988 35.8885H99.2399Z" fill="#B6BCD7"/>
<path d="M109.235 35.7564C109.803 35.7564 110.309 35.8753 110.753 36.1129C111.197 36.3418 111.548 36.6894 111.805 37.1559C112.063 37.6224 112.191 38.1902 112.191 38.8591V43.1236H110.993V39.0308C110.993 38.309 110.811 37.7589 110.447 37.3804C110.092 36.9931 109.608 36.7995 108.995 36.7995C108.365 36.7995 107.863 37.0019 107.49 37.4068C107.117 37.8029 106.931 38.3794 106.931 39.1364V43.1236H105.732V39.0308C105.732 38.309 105.55 37.7589 105.186 37.3804C104.831 36.9931 104.347 36.7995 103.734 36.7995C103.104 36.7995 102.602 37.0019 102.23 37.4068C101.857 37.8029 101.67 38.3794 101.67 39.1364V43.1236H100.458V35.8885H101.67V36.9315C101.91 36.553 102.23 36.2625 102.629 36.0601C103.037 35.8577 103.486 35.7564 103.974 35.7564C104.587 35.7564 105.128 35.8929 105.599 36.1657C106.07 36.4386 106.42 36.8391 106.651 37.3672C106.855 36.8567 107.193 36.4606 107.663 36.1789C108.134 35.8973 108.658 35.7564 109.235 35.7564Z" fill="#B6BCD7"/>
<path d="M116.763 43.2425C116.204 43.2425 115.702 43.1501 115.258 42.9652C114.814 42.7716 114.464 42.5075 114.206 42.173C113.949 41.8298 113.807 41.4381 113.78 40.998H115.032C115.067 41.3589 115.236 41.6537 115.538 41.8826C115.849 42.1114 116.253 42.2258 116.75 42.2258C117.212 42.2258 117.576 42.1246 117.842 41.9222C118.108 41.7197 118.242 41.4645 118.242 41.1564C118.242 40.8395 118.099 40.6063 117.815 40.4567C117.531 40.2982 117.092 40.1442 116.497 39.9946C115.955 39.8537 115.511 39.7129 115.165 39.5721C114.828 39.4224 114.535 39.2068 114.286 38.9251C114.046 38.6347 113.926 38.2562 113.926 37.7897C113.926 37.42 114.037 37.0811 114.259 36.7731C114.481 36.465 114.797 36.2229 115.205 36.0469C115.613 35.8621 116.08 35.7696 116.603 35.7696C117.411 35.7696 118.064 35.9721 118.561 36.377C119.058 36.7819 119.325 37.3364 119.36 38.0405H118.148C118.122 37.6621 117.966 37.3584 117.682 37.1295C117.407 36.9007 117.034 36.7863 116.563 36.7863C116.128 36.7863 115.782 36.8787 115.525 37.0635C115.267 37.2484 115.138 37.4904 115.138 37.7897C115.138 38.0273 115.214 38.2254 115.365 38.3838C115.525 38.5334 115.72 38.6567 115.951 38.7535C116.191 38.8415 116.519 38.9427 116.936 39.0572C117.46 39.198 117.886 39.3388 118.215 39.4797C118.543 39.6117 118.823 39.8141 119.054 40.087C119.294 40.3598 119.418 40.7163 119.427 41.1564C119.427 41.5525 119.316 41.909 119.094 42.2258C118.872 42.5427 118.557 42.7936 118.148 42.9784C117.749 43.1545 117.287 43.2425 116.763 43.2425Z" fill="#B6BCD7"/>
<path d="M127.797 39.2288C127.797 39.4576 127.783 39.6997 127.757 39.955H121.923C121.968 40.6679 122.212 41.2268 122.656 41.6317C123.109 42.0278 123.655 42.2258 124.294 42.2258C124.818 42.2258 125.253 42.107 125.599 41.8694C125.954 41.6229 126.203 41.2972 126.345 40.8924H127.65C127.455 41.5877 127.064 42.1554 126.478 42.5955C125.892 43.0268 125.164 43.2425 124.294 43.2425C123.602 43.2425 122.98 43.0884 122.43 42.7804C121.888 42.4723 121.462 42.0366 121.151 41.4733C120.84 40.9012 120.685 40.241 120.685 39.4929C120.685 38.7447 120.836 38.0889 121.138 37.5256C121.44 36.9623 121.861 36.531 122.403 36.2317C122.953 35.9237 123.584 35.7696 124.294 35.7696C124.987 35.7696 125.599 35.9193 126.132 36.2185C126.665 36.5178 127.073 36.9315 127.357 37.4596C127.65 37.9789 127.797 38.5687 127.797 39.2288ZM126.545 38.9779C126.545 38.5202 126.443 38.1286 126.239 37.8029C126.034 37.4684 125.755 37.2176 125.399 37.0503C125.053 36.8743 124.667 36.7863 124.241 36.7863C123.628 36.7863 123.104 36.9799 122.669 37.3672C122.243 37.7545 121.999 38.2914 121.937 38.9779H126.545Z" fill="#B6BCD7"/>
<path fill-rule="evenodd" clip-rule="evenodd" d="M24.2373 48.3137C24.6065 48.3137 24.9738 48.3055 25.339 48.2892V54.902H27.5424V48.091C39.3648 46.4844 48.4746 36.381 48.4746 24.1569C48.4746 18.9742 46.8371 14.1727 44.0495 10.2383L45.9604 4.31015L40.0268 5.82874C35.7853 2.19566 30.2686 0 24.2373 0C10.8514 0 3.05176e-05 10.8154 3.05176e-05 24.1569C3.05176e-05 36.7581 9.68062 47.1057 22.0339 48.2152V56H24.2373L24.2373 48.3137Z" fill="#5A81FA"/>
<path fill-rule="evenodd" clip-rule="evenodd" d="M31.95 26.3526C26.4739 26.3526 22.0347 21.9281 22.0347 16.4702C22.0347 11.0124 26.4739 6.58789 31.95 6.58789C37.426 6.58789 41.8652 11.0124 41.8652 16.4702C41.8652 21.9281 37.426 26.3526 31.95 26.3526ZM34.7042 17.5683C32.5746 17.5683 30.8483 15.8477 30.8483 13.7251C30.8483 11.6026 32.5746 9.88201 34.7042 9.88201C36.8338 9.88201 38.5601 11.6026 38.5601 13.7251C38.5601 15.8477 36.8338 17.5683 34.7042 17.5683Z" fill="white"/>
<path d="M18 40.5C18 36.9101 15.0899 34 11.5 34C7.91015 34 5 36.9101 5 40.5V47H11.5C15.0899 47 18 44.0899 18 40.5Z" fill="#5A81FA"/>
</svg>
