<svg width="61" height="61" viewBox="0 0 61 61" fill="none" xmlns="http://www.w3.org/2000/svg">
    <path d="M47.6078 17.4289C54.8332 26.8516 52.9619 40.2283 43.4281 47.3065C33.8942 54.3847 20.3082 52.4841 13.0828 43.0614C10.276 39.401 8.84187 35.1439 8.69647 30.8911C8.63621 29.129 8.79722 27.3675 9.17351 25.6496C10.2268 20.8409 12.9669 16.373 17.2625 13.1837C26.7963 6.10552 40.3823 8.00613 47.6078 17.4289Z" fill="#5A81FA"/>
    <path d="M4.12499 27.7147L8.69647 30.8911C8.63621 29.129 8.79722 27.3675 9.17351 25.6496L4.12499 27.7147Z" fill="#5A81FA"/>
    <rect width="2" height="7" transform="matrix(1 0 0 -1 31 57)" fill="#5A81FA"/>
    <rect width="2" height="9" transform="matrix(0 1 1 0 10 45)" fill="#5A81FA"/>
    <circle cx="24" cy="23" r="9" fill="white"/>
    <circle cx="19.5" cy="25.5" r="3.5" fill="#5A81FA"/>
    <path d="M37.5 42C37.5 38.6863 40.1863 36 43.5 36H44C47.5899 36 50.5 38.9101 50.5 42.5V48H43.5C40.1863 48 37.5 45.3137 37.5 42Z" fill="#5A81FA"/>
</svg>
