<svg width="62" height="60" viewBox="0 0 62 60" fill="none" xmlns="http://www.w3.org/2000/svg">
    <path d="M48.1078 17.4289C55.3332 26.8516 53.4619 40.2283 43.9281 47.3065C34.3942 54.3847 20.8082 52.4841 13.5828 43.0614C10.776 39.401 9.34187 35.1439 9.19647 30.8911C9.13621 29.129 9.29722 27.3675 9.67351 25.6496C10.7268 20.8409 13.4669 16.373 17.7625 13.1837C27.2963 6.10552 40.8823 8.00613 48.1078 17.4289Z" fill="#5A81FA"/>
    <path d="M4.62499 27.7147L9.19647 30.8911C9.13621 29.129 9.29722 27.3675 9.67351 25.6496L4.62499 27.7147Z" fill="#5A81FA"/>
    <rect width="2" height="7" transform="matrix(1 0 0 -1 31.5 57)" fill="#5A81FA"/>
    <rect width="2" height="9" transform="matrix(0 1 1 0 10.5 45)" fill="#5A81FA"/>
    <circle cx="24.5" cy="23" r="9" fill="white"/>
    <circle cx="20" cy="25.5" r="3.5" fill="#5A81FA"/>
</svg>