<svg width="60" height="60" viewBox="0 0 60 60" fill="none" xmlns="http://www.w3.org/2000/svg">
    <path d="M60 30C60 46.5685 46.5685 60 30 60C13.4315 60 0 46.5685 0 30C0 23.5637 2.02688 17.6008 5.47718 12.7147C6.90685 10.6902 8.58091 8.85047 10.4564 7.23861C15.7063 2.72675 22.5347 0 30 0C46.5685 0 60 13.4315 60 30Z" fill="#5A81FA"/>
    <path d="M3.11203 5.3527L5.47718 12.7147C6.90685 10.6902 8.58091 8.85047 10.4564 7.23861L3.11203 5.3527Z" fill="#5A81FA"/>
    <rect x="9" y="57" width="20" height="3" fill="#5A81FA"/>
    <rect x="4" y="51" width="9" height="3" fill="#5A81FA"/>
    <path d="M37 50.5C37 45.2533 41.2533 41 46.5 41C51.7467 41 56 45.2533 56 50.5V60H46.5C41.2533 60 37 55.7467 37 50.5Z" fill="#5A81FA"/>
    <path fill-rule="evenodd" clip-rule="evenodd" d="M19.2722 30.7475C25.4976 32.0056 31.5608 27.9955 32.8148 21.7908C34.0687 15.586 30.0385 9.53615 23.8131 8.27803C17.5877 7.01991 11.5245 11.03 10.2705 17.2347C9.01659 23.4395 13.0468 29.4893 19.2722 30.7475ZM18.1588 20.128C20.5798 20.6172 22.9377 19.0578 23.4254 16.6448C23.913 14.2319 22.3457 11.8791 19.9248 11.3899C17.5038 10.9006 15.1458 12.4601 14.6582 14.873C14.1705 17.286 15.7378 19.6387 18.1588 20.128Z" fill="white"/>
</svg>
