<svg width="60" height="61" viewBox="0 0 60 61" fill="none" xmlns="http://www.w3.org/2000/svg">
    <path d="M60 30.7256C60 47.2941 46.5685 60.7256 30 60.7256C13.4315 60.7256 0 47.2941 0 30.7256C0 24.2893 2.02688 18.3264 5.47718 13.4403C6.90685 11.4157 8.58091 9.57606 10.4564 7.9642C15.7063 3.45234 22.5347 0.725586 30 0.725586C46.5685 0.725586 60 14.157 60 30.7256Z" fill="#5A81FA"/>
    <path d="M3.11203 6.07828L5.47718 13.4403C6.90685 11.4157 8.58091 9.57606 10.4564 7.9642L3.11203 6.07828Z" fill="#5A81FA"/>
    <rect x="9" y="57.7256" width="20" height="3" fill="#5A81FA"/>
    <rect x="4" y="51.7256" width="9" height="3" fill="#5A81FA"/>
    <path d="M37 51.2256C37 45.9789 41.2533 41.7256 46.5 41.7256C51.7467 41.7256 56 45.9789 56 51.2256V60.7256H46.5C41.2533 60.7256 37 56.4723 37 51.2256Z" fill="#5A81FA"/>
    <path d="M23.8131 9.00362C30.0385 10.2617 34.0687 16.3117 32.8148 22.5164C31.5608 28.7212 25.4975 32.7313 19.2722 31.4732C13.0468 30.2151 9.01663 24.1651 10.2705 17.9604C11.5245 11.7556 17.5877 7.7455 23.8131 9.00362ZM19.9244 12.1153C17.5037 11.6263 15.1462 13.1856 14.6584 15.5982C14.1708 18.011 15.7376 20.3642 18.1584 20.8536C20.5794 21.3429 22.9379 19.7829 23.4255 17.37C23.9129 14.9572 22.3452 12.6045 19.9244 12.1153Z" fill="white"/>
</svg>
