<svg width="64" height="73" viewBox="0 0 64 73" fill="none" xmlns="http://www.w3.org/2000/svg">
<path d="M29.0352 73H31.9053V62.9824H29.0352V73ZM31.9043 0.0126953C14.4685 0.0126953 0.333984 14.1094 0.333984 31.498C0.33424 48.8865 14.4687 62.9824 31.9043 62.9824C32.3851 62.9824 32.8633 62.9695 33.3389 62.9482V71.5693H36.209V62.6895C51.608 60.5954 63.4744 47.4301 63.4746 31.498C63.4746 24.7432 61.3418 18.4843 57.7109 13.3564L60.1992 5.62988L52.4707 7.60938C46.9461 2.87427 39.7602 0.0127237 31.9043 0.0126953Z" fill="#5A81FA"/>
<path d="M41.9482 8.59961C34.8156 8.59976 29.0333 14.3661 29.0332 21.4795C29.0332 28.5929 34.8156 34.3592 41.9482 34.3594C49.0811 34.3594 54.8633 28.593 54.8633 21.4795C54.8632 14.366 49.081 8.59961 41.9482 8.59961ZM45.5371 12.8936C48.3109 12.8936 50.5595 15.136 50.5596 17.9023C50.5596 20.6687 48.3109 22.9111 45.5371 22.9111C42.7632 22.9111 40.5146 20.6687 40.5146 17.9023C40.5147 15.136 42.7633 12.8936 45.5371 12.8936Z" fill="white"/>
<path d="M24 51.2256C24 45.9789 19.7467 41.7256 14.5 41.7256C9.25329 41.7256 5 45.9789 5 51.2256V60.7256H14.5C19.7467 60.7256 24 56.4723 24 51.2256Z" fill="#5A81FA"/>
</svg>
