<svg width="44" height="50" viewBox="0 0 44 50" fill="none" xmlns="http://www.w3.org/2000/svg">
    <path fill-rule="evenodd" clip-rule="evenodd" d="M3.43323e-05 21.5686C3.43323e-05 33.4807 9.68282 43.1373 21.6272 43.1373C21.9566 43.1373 22.2843 43.1299 22.6102 43.1154V49.0196H24.5763V42.9384C35.1255 41.5039 43.2543 32.483 43.2543 21.5686C43.2543 16.9412 41.7931 12.6542 39.3058 9.14132L41.0108 3.84834L35.7162 5.20423C31.9315 1.96041 27.0089 0 21.6272 0C9.68282 0 3.43323e-05 9.6566 3.43323e-05 21.5686ZM21.6272 43.1373L21.6272 50H19.6611V43.1373H21.6272Z" fill="#5A81FA"/>
    <path fill-rule="evenodd" clip-rule="evenodd" d="M28.5085 23.5294C23.6222 23.5294 19.661 19.579 19.661 14.7059C19.661 9.83275 23.6222 5.88232 28.5085 5.88232C33.3948 5.88232 37.356 9.83275 37.356 14.7059C37.356 19.579 33.3948 23.5294 28.5085 23.5294ZM30.9661 15.6862C29.0659 15.6862 27.5254 14.15 27.5254 12.2549C27.5254 10.3598 29.0659 8.8235 30.9661 8.8235C32.8664 8.8235 34.4068 10.3598 34.4068 12.2549C34.4068 14.15 32.8664 15.6862 30.9661 15.6862Z" fill="white"/>
</svg>
