<svg width="512" height="512" viewBox="0 0 512 512" fill="none" xmlns="http://www.w3.org/2000/svg">
<rect width="512" height="512" fill="#F2F3F8"/>
<path d="M246.729 96.3018C163.185 96.3019 95.459 163.845 95.459 247.163C95.4591 325.84 155.85 390.448 232.924 397.402V446.027H246.777V398.023C249.066 398.023 251.343 397.968 253.607 397.867V439.167H267.358V396.63C341.144 386.596 398 323.503 398 247.163C398 214.797 387.779 184.811 370.382 160.24L382.308 123.219L345.275 132.702C318.804 110.013 284.372 96.3018 246.729 96.3018Z" fill="#5A81FA"/>
<path d="M294.857 137.447C260.68 137.447 232.974 165.078 232.974 199.163C232.974 233.248 260.68 260.879 294.857 260.879C329.034 260.879 356.74 233.248 356.74 199.163C356.74 165.078 329.034 137.448 294.857 137.447ZM312.051 158.021C325.342 158.022 336.116 168.767 336.116 182.022C336.116 195.278 325.342 206.023 312.051 206.023C298.76 206.023 287.984 195.278 287.984 182.022C287.984 168.767 298.76 158.021 312.051 158.021Z" fill="white"/>
<path d="M208.852 341.691C208.852 316.551 188.472 296.171 163.332 296.171V296.171C138.192 296.171 117.812 316.551 117.812 341.691V387.21H163.332C188.472 387.21 208.852 366.83 208.852 341.691V341.691Z" fill="#5A81FA"/>
</svg>
